<?xml version="1.0" encoding="utf-8"?>
<!-- Generator: Adobe Illustrator 16.0.0, SVG Export Plug-In . SVG Version: 6.00 Build 0)  -->
<!DOCTYPE svg PUBLIC "-//W3C//DTD SVG 1.1//EN" "http://www.w3.org/Graphics/SVG/1.1/DTD/svg11.dtd">
<svg version="1.1" id="Layer_1" xmlns="http://www.w3.org/2000/svg" xmlns:xlink="http://www.w3.org/1999/xlink" x="0px" y="0px"
	 width="506.333px" height="506px" viewBox="0 0 506.333 506" enable-background="new 0 0 506.333 506" xml:space="preserve">
<circle cx="252.796" cy="252.837" r="250.45"/>
<g>
	<g>
		<path fill="#FFFFFF" d="M186.586,213.531c27.227,1.729,54.69,1.691,81.929,0.431c21.424-0.991,42.889-2.974,63.922-7.268
			c18.542-3.786,37.229-9.43,47.94-26.286c9.267-14.583,11.271-33.275,5.141-49.444c-5.915-15.599-21.468-25.059-37.446-27.399
			c-18.296-2.679-36.149,5.362-47.16,19.979c-4.358,5.786-6.783,12.204-9.263,18.861c-19.224,51.617-38.448,103.233-57.672,154.85
			c-8.263,22.185-16.525,44.37-24.788,66.555c-2.573,6.909-5.012,12.752-9.77,18.754c-12.594,15.887-34.237,19.733-52.486,12.172
			c-17.031-7.058-25.653-23.052-25.667-41.01c-0.018-20.648,12.547-39.15,32.189-45.739c19.82-6.648,41.023-9.184,61.761-10.949
			c20.744-1.767,41.595-2.275,62.406-2.155c13.15,0.075,26.332,0.354,39.46,1.188c2.291,0.146,4.997-3.732,1.928-3.928
			c-27.228-1.728-54.69-1.69-81.93-0.432c-21.424,0.991-42.891,2.974-63.925,7.268c-18.542,3.785-37.227,9.428-47.938,26.284
			c-9.267,14.584-11.271,33.276-5.139,49.445c5.916,15.6,21.468,25.063,37.448,27.402c18.298,2.68,36.154-5.362,47.167-19.979
			c4.22-5.601,6.445-11.305,8.823-17.69c19.62-52.677,39.239-105.354,58.858-158.031c7.867-21.124,15.735-42.249,23.603-63.373
			c2.663-7.15,5.346-13.789,10.208-19.925c12.592-15.887,34.232-19.731,52.479-12.171c17.032,7.057,25.65,23.047,25.665,41.005
			c0.017,20.653-12.55,39.149-32.194,45.741c-19.818,6.649-41.02,9.186-61.757,10.951c-20.743,1.766-41.593,2.275-62.405,2.156
			c-13.15-0.076-26.332-0.355-39.459-1.188C186.223,209.458,183.517,213.336,186.586,213.531L186.586,213.531z"/>
	</g>
</g>
</svg>
