<?xml version="1.0" encoding="utf-8"?>
<!-- Generator: Adobe Illustrator 16.0.0, SVG Export Plug-In . SVG Version: 6.00 Build 0)  -->
<!DOCTYPE svg PUBLIC "-//W3C//DTD SVG 1.1//EN" "http://www.w3.org/Graphics/SVG/1.1/DTD/svg11.dtd">
<svg version="1.1" id="Layer_1" xmlns="http://www.w3.org/2000/svg" xmlns:xlink="http://www.w3.org/1999/xlink" x="0px" y="0px"
	 width="506.333px" height="506px" viewBox="0 0 506.333 506" enable-background="new 0 0 506.333 506" xml:space="preserve">
<circle cx="252.796" cy="252.837" r="250.45"/>
<g>
	<g>
		<path fill="#FFFFFF" d="M185.623,215.494c27.419,1.741,55.078,1.716,82.51,0.448c21.639-1.001,43.292-3.047,64.535-7.384
			c19.486-3.978,38.66-10.187,49.874-27.833c9.553-15.033,11.496-34.29,5.188-50.926c-6.092-16.066-22.265-25.792-38.694-28.197
			c-19.296-2.826-38.353,5.712-49.974,21.138c-4.487,5.958-7.026,12.501-9.577,19.349c-19.225,51.617-38.448,103.233-57.673,154.85
			c-8.262,22.186-16.525,44.37-24.788,66.555c-2.502,6.719-4.836,12.441-9.455,18.267c-11.841,14.937-32.058,18.24-49.154,11.156
			c-16.6-6.879-24.776-22.423-24.791-39.885c-0.016-19.334,11.616-36.993,30.061-43.181c19.63-6.585,40.608-9.086,61.147-10.834
			c20.744-1.766,41.594-2.274,62.407-2.155c12.957,0.074,25.944,0.351,38.879,1.172c2.487,0.158,5.108-0.956,6.257-3.294
			c0.958-1.952-0.043-4.41-2.401-4.56c-27.419-1.741-55.079-1.717-82.511-0.448c-21.64,1.001-43.294,3.047-64.539,7.383
			c-19.486,3.978-38.659,10.186-49.872,27.833c-9.552,15.032-11.495,34.29-5.186,50.926c6.093,16.067,22.265,25.795,38.696,28.201
			c19.298,2.826,38.357-5.713,49.98-21.139c4.355-5.779,6.688-11.599,9.138-18.178c19.619-52.677,39.238-105.354,58.857-158.031
			c7.868-21.125,15.735-42.249,23.603-63.373c2.593-6.96,5.164-13.469,9.894-19.437c11.839-14.937,32.053-18.239,49.147-11.156
			c16.601,6.878,24.773,22.418,24.788,39.88c0.016,19.338-11.619,36.992-30.066,43.182c-19.628,6.586-40.605,9.087-61.143,10.835
			c-20.743,1.767-41.594,2.275-62.405,2.156c-12.957-0.074-25.944-0.351-38.879-1.172c-2.487-0.158-5.108,0.956-6.256,3.294
			C182.264,212.887,183.265,215.345,185.623,215.494L185.623,215.494z"/>
	</g>
</g>
</svg>
